<?xml version="1.0" encoding="UTF-8"?>
<!DOCTYPE svg PUBLIC "-//W3C//DTD SVG 1.1//EN" "http://www.w3.org/Graphics/SVG/1.1/DTD/svg11.dtd">
<svg xmlns="http://www.w3.org/2000/svg" version="1.1" width="96px" height="96px" style="shape-rendering:geometricPrecision; text-rendering:geometricPrecision; image-rendering:optimizeQuality; fill-rule:evenodd; clip-rule:evenodd" xmlns:xlink="http://www.w3.org/1999/xlink">
<g><path style="opacity:1" fill="#216fd8" d="M -0.5,3.5 C 15.5,3.5 31.5,3.5 47.5,3.5C 47.5,13.5 47.5,23.5 47.5,33.5C 42.456,33.1725 37.456,33.5059 32.5,34.5C 34.5519,43.4264 36.2186,52.4264 37.5,61.5C 40.8333,61.5 44.1667,61.5 47.5,61.5C 47.5,71.5 47.5,81.5 47.5,91.5C 35.9191,91.8211 24.4191,91.4878 13,90.5C 8.48027,64.7085 3.98027,39.0418 -0.5,13.5C -0.5,10.1667 -0.5,6.83333 -0.5,3.5 Z"/></g>
<g><path style="opacity:0.992" fill="#267ff7" d="M 47.5,3.5 C 63.5,3.5 79.5,3.5 95.5,3.5C 95.5,6.83333 95.5,10.1667 95.5,13.5C 91.2328,39.098 86.7328,64.7646 82,90.5C 70.5809,91.4878 59.0809,91.8211 47.5,91.5C 47.5,81.5 47.5,71.5 47.5,61.5C 50.8333,61.5 54.1667,61.5 57.5,61.5C 58.8333,52.1667 60.1667,42.8333 61.5,33.5C 56.8333,33.5 52.1667,33.5 47.5,33.5C 47.5,23.5 47.5,13.5 47.5,3.5 Z"/></g>
<g><path style="opacity:1" fill="#dddddd" d="M 47.5,33.5 C 47.5,42.8333 47.5,52.1667 47.5,61.5C 44.1667,61.5 40.8333,61.5 37.5,61.5C 36.2186,52.4264 34.5519,43.4264 32.5,34.5C 37.456,33.5059 42.456,33.1725 47.5,33.5 Z"/></g>
</svg>
