<?xml version="1.0" standalone="no"?>
<!DOCTYPE svg PUBLIC "-//W3C//DTD SVG 20010904//EN"
 "http://www.w3.org/TR/2001/REC-SVG-20010904/DTD/svg10.dtd">
<svg version="1.0" xmlns="http://www.w3.org/2000/svg"
 width="214.000000pt" height="320.000000pt" viewBox="0 0 214.000000 320.000000"
 preserveAspectRatio="xMidYMid meet">

<g transform="translate(0.000000,320.000000) scale(0.100000,-0.100000)"
fill="#000000" stroke="none">
<path d="M1066 2766 c-16 -7 -24 -16 -18 -20 15 -9 65 12 57 24 -3 5 -7 10 -8
9 -1 0 -15 -6 -31 -13z"/>
<path d="M1145 2760 c3 -5 8 -10 11 -10 2 0 4 5 4 10 0 6 -5 10 -11 10 -5 0
-7 -4 -4 -10z"/>
<path d="M1110 2743 c0 -7 -11 -13 -25 -13 -14 0 -44 -9 -66 -20 -31 -16 -39
-26 -37 -43 2 -18 -3 -23 -25 -25 -18 -2 -27 1 -25 10 2 7 -7 14 -19 16 -13 2
-23 -1 -23 -7 0 -6 8 -11 17 -11 16 0 16 -1 1 -16 -12 -12 -20 -14 -36 -5 -17
9 -21 7 -26 -11 -3 -12 0 -25 6 -29 6 -4 2 -10 -12 -14 -22 -7 -22 -7 -2 -27
18 -19 21 -19 51 -4 17 9 35 15 40 12 4 -3 30 9 57 26 39 24 63 32 116 36 l68
5 15 -36 c8 -20 15 -48 15 -62 0 -14 13 -43 29 -65 32 -44 51 -144 32 -163 -6
-6 -11 -18 -11 -26 0 -17 -27 -44 -77 -80 -35 -24 -35 -24 -37 34 -1 24 -8 34
-36 47 -19 10 -34 20 -32 23 5 12 1 25 -8 25 -5 0 -10 -7 -10 -15 0 -8 -6 -15
-14 -15 -7 0 -19 -6 -26 -14 -6 -8 -23 -16 -37 -18 -15 -2 -28 -8 -30 -15 -3
-8 9 -10 39 -6 32 3 39 2 28 -6 -12 -8 -6 -11 25 -11 35 -1 37 -2 20 -12 -10
-6 -33 -15 -50 -19 -27 -6 -27 -7 -5 -8 14 0 43 4 65 9 45 10 61 1 47 -26 -6
-11 -13 -27 -16 -37 -3 -10 -10 -16 -15 -12 -5 3 -22 -6 -37 -20 -31 -29 -46
-31 -68 -10 -8 8 -17 15 -20 15 -3 0 -6 -7 -6 -15 0 -8 -5 -15 -10 -15 -7 0
-7 6 0 20 6 11 7 37 4 60 -5 33 -4 40 10 40 9 0 16 7 16 15 0 8 -9 15 -20 15
-17 0 -20 7 -21 43 l-1 42 -14 -30 c-9 -20 -12 -46 -8 -78 5 -36 2 -53 -10
-66 -14 -15 -14 -20 2 -51 9 -19 35 -47 57 -63 69 -47 150 -40 236 22 66 48
89 90 102 186 10 72 15 85 34 94 27 12 30 33 8 51 -21 17 -32 4 -17 -20 10
-16 9 -21 -8 -30 -20 -11 -21 -9 -17 44 3 41 1 56 -9 56 -13 0 -44 53 -44 75
0 7 8 19 18 29 18 15 20 15 35 -2 10 -10 17 -25 17 -33 1 -10 4 -8 11 5 8 13
7 28 -4 58 -9 21 -14 45 -11 53 3 7 1 16 -5 20 -6 3 -11 14 -11 23 -1 30 -46
72 -79 72 -16 0 -33 -4 -36 -10 -3 -5 -21 -10 -38 -9 l-32 1 35 11 c33 10 33
11 10 15 -14 2 -28 9 -32 16 -6 8 -8 8 -8 -1z"/>
<path d="M934 2706 c-10 -8 -16 -17 -12 -21 8 -8 48 13 48 25 0 14 -13 12 -36
-4z"/>
<path d="M826 2525 c4 -8 8 -15 10 -15 2 0 4 7 4 15 0 8 -4 15 -10 15 -5 0 -7
-7 -4 -15z"/>
<path d="M1310 2450 c0 -19 3 -21 12 -12 9 9 9 15 0 24 -9 9 -12 7 -12 -12z"/>
<path d="M1040 2437 c-19 -6 -34 -15 -32 -19 1 -5 2 -14 2 -22 0 -18 40 -28
46 -12 3 9 20 12 54 8 60 -5 67 11 13 27 l-38 10 45 -5 c34 -5 42 -3 34 6 -17
17 -84 22 -124 7z"/>
<path d="M1348 2423 c6 -2 12 -14 12 -26 0 -14 3 -18 10 -11 15 15 2 44 -19
43 -10 0 -11 -2 -3 -6z"/>
<path d="M865 2405 l-30 -13 29 -1 c27 -1 28 -2 12 -14 -17 -12 -14 -14 28
-14 54 -1 68 13 36 39 -26 21 -35 22 -75 3z"/>
<path d="M145 2333 c-81 -4 -110 -12 -98 -24 12 -12 295 10 288 22 -5 7 -85 8
-190 2z"/>
<path d="M1028 2133 c7 -3 16 -2 19 1 4 3 -2 6 -13 5 -11 0 -14 -3 -6 -6z"/>
<path d="M1299 2023 c-46 -43 -183 -233 -269 -373 -52 -85 -150 -263 -150
-272 0 -4 -6 -8 -12 -8 -20 0 -74 -47 -65 -56 5 -5 16 2 26 15 10 13 24 22 31
19 8 -2 4 -14 -14 -35 -14 -17 -24 -37 -21 -45 3 -8 -3 -34 -14 -59 -12 -24
-21 -39 -21 -34 0 6 -7 1 -15 -9 -27 -35 -18 7 10 48 29 43 33 72 5 36 -24
-31 -27 -9 -3 26 13 21 14 27 3 34 -10 6 -12 29 -8 91 6 99 50 239 107 344 23
42 40 89 43 118 3 26 4 47 3 47 -12 0 -91 -197 -152 -380 -54 -160 -78 -378
-54 -483 7 -30 5 -46 -12 -80 -11 -23 -24 -73 -27 -112 -6 -63 -15 -67 -11 -5
2 21 0 22 -9 10 -10 -12 -11 -11 -5 5 4 11 7 27 6 35 0 8 -1 83 -1 165 1 91
-5 180 -14 227 -20 103 -5 248 25 248 11 0 12 4 -6 -54 -20 -66 -20 -103 1
-57 20 47 28 32 15 -29 -14 -66 -14 -70 4 -70 9 0 15 9 15 25 0 13 4 34 9 47
5 13 16 46 24 73 8 28 38 110 66 184 28 73 48 138 44 144 -4 6 -1 7 7 2 10 -6
12 -4 7 7 -3 9 -3 19 1 23 4 4 7 10 7 13 2 25 19 51 40 62 14 7 23 15 21 17
-4 5 -32 -7 -149 -61 -43 -20 -75 -31 -71 -25 5 8 1 8 -14 0 -42 -22 -97 -148
-137 -311 -14 -58 -33 -120 -42 -139 -16 -35 -35 -151 -34 -206 0 -19 -3 -25
-8 -17 -9 15 -31 -27 -31 -60 0 -11 -11 -33 -25 -50 -38 -46 -34 -61 10 -32
14 9 25 12 25 7 0 -5 -12 -16 -26 -23 -23 -13 -25 -18 -19 -55 4 -22 9 -78 11
-125 3 -99 18 -203 33 -244 11 -26 13 -27 34 -13 26 17 125 40 138 31 5 -3 9
-14 9 -25 0 -21 65 -144 81 -155 5 -3 9 -10 9 -16 0 -6 -10 -2 -23 10 -31 29
-40 28 -32 -6 5 -25 0 -34 -39 -70 -24 -22 -41 -42 -38 -44 4 -2 5 -69 2 -151
l-5 -147 523 0 c499 0 522 1 522 18 0 93 -26 254 -60 367 -55 185 -60 208 -70
291 -8 75 -8 75 36 169 91 196 167 418 185 547 16 108 0 290 -31 354 -18 36
-100 108 -100 87 0 -4 -6 1 -13 10 -7 10 -30 24 -52 32 -29 10 -34 14 -17 15
23 0 23 0 -5 23 -15 13 -49 38 -74 55 -26 17 -54 47 -63 67 -9 19 -19 35 -22
35 -3 0 -27 -21 -55 -47z m-534 -343 c-10 -11 -20 -18 -23 -15 -3 3 3 14 13
25 10 11 20 18 23 15 3 -3 -3 -14 -13 -25z m586 -63 c-10 -9 -11 -8 -5 6 3 10
9 15 12 12 3 -3 0 -11 -7 -18z m-671 -27 c-22 -31 -49 -54 -35 -29 10 17 47
59 52 59 3 0 -5 -13 -17 -30z m-131 -232 c1 -5 -3 -8 -9 -8 -5 0 -10 12 -9 28
0 24 1 25 9 7 5 -11 9 -23 9 -27z m-13 -209 c4 -24 4 -41 0 -37 -4 3 -8 12
-10 20 -1 7 -4 18 -8 23 -3 6 -9 28 -13 50 -6 40 -6 40 9 14 9 -15 18 -46 22
-70z m241 -31 c-8 -24 -12 -28 -15 -15 -2 10 2 24 8 32 19 22 20 18 7 -17z
m-313 -163 c-4 -8 -11 -15 -16 -15 -6 0 -7 -7 -4 -16 3 -8 2 -12 -4 -9 -14 8
-13 28 2 43 17 17 29 15 22 -3z m666 -89 c0 -3 -4 -8 -10 -11 -5 -3 -10 -1
-10 4 0 6 5 11 10 11 6 0 10 -2 10 -4z m-626 -59 c-3 -8 -12 -18 -20 -21 -11
-4 -10 0 3 18 20 26 27 28 17 3z m391 -94 c-8 -34 -25 -54 -25 -30 0 23 -7 21
-36 -10 l-25 -28 17 35 c23 49 34 60 56 60 17 0 19 -4 13 -27z m-139 -59 c-3
-9 -6 -18 -6 -20 0 -2 -5 -4 -11 -4 -5 0 -7 5 -3 12 5 8 1 9 -12 5 -18 -7 -18
-7 0 8 26 19 40 19 32 -1z m5 -301 c12 -21 23 -39 24 -41 1 -1 19 5 39 13 29
12 45 13 76 5 22 -6 40 -13 40 -15 0 -19 -23 -55 -35 -55 -8 0 -15 -3 -15 -8
0 -14 -55 -31 -97 -30 -23 1 -38 5 -32 9 6 3 2 9 -10 12 -14 3 -19 1 -14 -6 4
-6 0 -8 -10 -4 -10 4 -23 10 -31 13 -9 3 -16 -2 -19 -13 -5 -16 -6 -15 -4 2 0
11 -3 30 -7 43 -6 18 -1 30 23 58 17 19 31 39 31 44 0 21 20 8 41 -27z m189
-4 c0 -5 5 -7 10 -4 6 3 10 1 10 -4 0 -16 -16 -13 -30 4 -9 10 -9 15 -1 15 6
0 11 -5 11 -11z m-280 -185 c0 -8 -4 -12 -10 -9 -5 3 -10 10 -10 16 0 5 5 9
10 9 6 0 10 -7 10 -16z"/>
<path d="M992 1929 c28 -11 43 -35 28 -44 -5 -3 -11 -1 -15 5 -11 18 -26 10
-23 -12 2 -13 -6 -32 -19 -45 -22 -21 -33 -60 -14 -48 19 11 20 -13 1 -30 -11
-10 -28 -35 -40 -57 l-20 -39 41 43 c30 31 43 39 47 29 3 -8 -4 -22 -14 -30
-28 -23 -90 -103 -98 -126 -4 -11 15 5 43 35 33 37 50 49 51 38 0 -10 -8 -25
-18 -35 -27 -27 -87 -105 -100 -130 -22 -41 -12 -35 29 19 23 29 50 60 60 68
26 21 81 139 81 173 -1 36 21 88 47 111 l20 19 -23 30 c-17 21 -34 31 -57 33
-33 3 -33 2 -7 -7z m-1 -142 c-8 -8 -11 -7 -11 4 0 20 13 34 18 19 3 -7 -1
-17 -7 -23z"/>
<path d="M956 1908 c-9 -29 -13 -67 -6 -63 14 9 29 64 19 70 -5 4 -11 0 -13
-7z"/>
<path d="M875 1468 c-31 -40 -52 -74 -47 -76 13 -4 71 58 72 76 0 6 5 12 10
12 11 0 34 50 27 57 -2 2 -30 -29 -62 -69z"/>
<path d="M800 1359 c0 -5 5 -7 10 -4 6 3 10 8 10 11 0 2 -4 4 -10 4 -5 0 -10
-5 -10 -11z"/>
<path d="M456 501 c-4 -7 -5 -15 -2 -18 9 -9 19 4 14 18 -4 11 -6 11 -12 0z"/>
<path d="M460 391 c0 -20 23 -45 33 -35 7 8 -14 54 -25 54 -4 0 -8 -8 -8 -19z"/>
<path d="M540 385 c-7 -9 -8 -15 -2 -15 5 0 12 7 16 15 3 8 4 15 2 15 -2 0 -9
-7 -16 -15z"/>
</g>
</svg>
